<?xml version="1.0" encoding="utf-8"?>
<!-- Generator: Adobe Illustrator 16.0.0, SVG Export Plug-In . SVG Version: 6.00 Build 0)  -->
<!DOCTYPE svg PUBLIC "-//W3C//DTD SVG 1.1//EN" "http://www.w3.org/Graphics/SVG/1.1/DTD/svg11.dtd">
<svg version="1.1" xmlns="http://www.w3.org/2000/svg" xmlns:xlink="http://www.w3.org/1999/xlink" x="0px" y="0px" width="480px"
	 height="800px" viewBox="0 0 480 800" enable-background="new 0 0 480 800" xml:space="preserve">
<g id="Layer_1">
	<g>
		<g id="XMLID_1_">
			<g>
				<path fill="#FFFFFF" d="M745.09,92c0,200.31,0,400.62,0,600.92c-266.971,0-533.93,0-800.9,0c0-200.3,0-400.61,0-600.92
					C211.16,92,478.119,92,745.09,92z M374.529,431.57c7.47-18.24,12.811-37.021,9.351-56.92c-8.36-48.18-50.511-67.7-83.87-61.98
					c-39.391,6.76-60.58,36.54-62.8,71.14c-0.08,1.25-0.12,2.5-0.12,3.75h-0.05c0-3.37-0.21-6.78-0.65-10.25
					c-2.05-16.09-8.04-30.57-19.25-42.2c-17.39-18.03-38.82-25.99-63.96-22.51c-15.18,2.11-28.92,7.96-39.82,18.71
					c-22.08,21.79-28.75,48.03-20.32,77.92c12.31,43.6,40.3,77.26,70.25,110.56c-0.29,14.9,4.58,28.97,10.41,42.56
					c10.81,25.16,25.89,47.61,43.72,68.29c6.47,7.521,12.97,15.011,19.89,23c6.52-7.33,12.71-14.47,19.09-21.42
					c18.41-20.029,33.78-42.029,44.15-67.3c5.97-14.58,10.59-29.47,10.46-45.03c0.12,0.13,0.239,0.271,0.359,0.4
					c6.48-7.29,12.67-14.44,19.061-21.41C348.819,478.85,364.18,456.84,374.529,431.57z"/>
				<linearGradient id="SVGID_1_" gradientUnits="userSpaceOnUse" x1="237.0894" y1="415.9961" x2="384.957" y2="415.9961">
					<stop  offset="0.2312" style="stop-color:#FF4500"/>
					<stop  offset="1" style="stop-color:#8B3B00"/>
				</linearGradient>
				<path fill="url(#SVGID_1_)" d="M383.88,374.65c3.46,19.9-1.881,38.68-9.351,56.92c-10.35,25.27-25.71,47.279-44.1,67.31
					c-6.391,6.97-12.58,14.12-19.061,21.41c-0.12-0.13-0.239-0.271-0.359-0.4c-0.021-3.92-0.351-7.88-1.04-11.899
					c-5.69-33.311-28.3-53.62-53.44-60.36c-4.54-8.35-8.56-17.03-11.93-26.14c-4.07-10.98-7.51-22.25-7.51-33.93
					c0-1.25,0.04-2.5,0.12-3.75c2.22-34.6,23.41-64.38,62.8-71.14C333.369,306.95,375.52,326.47,383.88,374.65z M370.05,386.05
					c0.04-12.9-3.98-24.81-10.851-34.52c-10.67-15.07-28.2-24.85-48.08-24.85c-18.84,0-35.59,8.79-46.399,22.47
					c-7.88,9.98-12.601,22.56-12.66,36.25c-0.13,32.52,25.06,60.1,59.2,60.03C345.029,445.36,369.939,418.02,370.05,386.05z"/>
				<path fill="#FFFFFF" d="M359.199,351.53c6.87,9.71,10.891,21.62,10.851,34.52c-0.11,31.97-25.021,59.311-58.79,59.38
					c-34.141,0.07-59.33-27.51-59.2-60.03c0.06-13.69,4.78-26.27,12.66-36.25l2.33,1.23c-3.351,3.44-4.69,7.62-3.641,11.8
					c1.53,6.06,7.54,11.06,14.29,11.4c3.69,0.18,7.4-0.29,11.3-0.47c-3.14,4.72-5.369,5.96-10.409,5.64
					c-3.15-0.2-6.381-1.27-9.381-0.77c-2.149,0.35-5.069,2.29-5.72,4.18c-2.08,6.04,3.061,11.98,9.44,11.29
					c2.58-0.28,5.069-1.43,8.93-2.59c-5.45,9.68-0.83,16.82,3.86,24.44c2.779,4.49,3.529,10.21,5.45,15.28
					c0.85,2.229,1.92,4.72,3.649,6.21c7.5,6.46,24.69,6.66,32.42,0.31c1.84-1.52,2.86-4.26,3.75-6.64
					c1.61-4.31,2.181-9.13,4.36-13.09c4.54-8.271,11.46-15.74,5.109-25.9c4.23,0.78,7.601,2.01,10.921,1.87
					c4.989-0.22,8.31-5.29,7.6-10.48c-0.55-4.03-3.09-5.51-8.72-4.99c-2.48,0.23-4.94,0.77-7.42,0.9c-4.341,0.22-7.5-1.77-9.83-5.65
					c16.859,0.52,23.35-2.23,25.67-10.72c0.939-3.45,0.229-6.96-1.92-9.99L359.199,351.53z"/>
				<path fill="#FFFFFF" d="M359.199,351.53l-2.439,0.88c-1.521-2.15-3.771-4.07-6.681-5.54c0.63,1.44,1.13,2.43,1.5,3.47
					c2.61,7.29,0.301,11.77-7.229,13.26c-8.36,1.65-16.51,1.22-24.141-3.28c-6.109-3.59-12.399-3.5-18.489,0.14
					c-6.471,3.86-13.5,4.58-20.721,3.64c-11.329-1.47-13.609-5.63-9.35-16.29c0.08-0.19-0.2-0.51-0.31-0.77
					c-1.67,1-3.101,2.12-4.29,3.34l-2.33-1.23c10.81-13.68,27.56-22.47,46.399-22.47C330.999,326.68,348.529,336.46,359.199,351.53z
					"/>
				<linearGradient id="SVGID_2_" gradientUnits="userSpaceOnUse" x1="263.0205" y1="394.3105" x2="359.0859" y2="394.3105">
					<stop  offset="0.2312" style="stop-color:#FF4500"/>
					<stop  offset="1" style="stop-color:#8B3B00"/>
				</linearGradient>
				<path fill="url(#SVGID_2_)" d="M358.979,382.86c0.71,5.19-2.61,10.26-7.6,10.48c-3.32,0.14-6.69-1.09-10.921-1.87
					c6.351,10.16-0.569,17.629-5.109,25.9c-2.18,3.96-2.75,8.78-4.36,13.09c-0.89,2.38-1.91,5.12-3.75,6.64
					c-7.729,6.351-24.92,6.15-32.42-0.31c-1.729-1.49-2.8-3.98-3.649-6.21c-1.921-5.07-2.671-10.79-5.45-15.28
					c-4.69-7.62-9.311-14.76-3.86-24.44c-3.86,1.16-6.35,2.31-8.93,2.59c-6.38,0.69-11.521-5.25-9.44-11.29
					c0.65-1.89,3.57-3.83,5.72-4.18c3-0.5,6.23,0.57,9.381,0.77c5.04,0.32,7.27-0.92,10.409-5.64c-3.899,0.18-7.609,0.65-11.3,0.47
					c-6.75-0.34-12.76-5.34-14.29-11.4c-1.05-4.18,0.29-8.36,3.641-11.8c1.189-1.22,2.62-2.34,4.29-3.34
					c0.109,0.26,0.39,0.58,0.31,0.77c-4.26,10.66-1.979,14.82,9.35,16.29c7.221,0.94,14.25,0.22,20.721-3.64
					c6.09-3.64,12.38-3.73,18.489-0.14c7.631,4.5,15.78,4.93,24.141,3.28c7.53-1.49,9.84-5.97,7.229-13.26
					c-0.37-1.04-0.87-2.03-1.5-3.47c2.91,1.47,5.16,3.39,6.681,5.54c2.149,3.03,2.859,6.54,1.92,9.99
					c-2.32,8.49-8.811,11.24-25.67,10.72c2.33,3.88,5.489,5.87,9.83,5.65c2.479-0.13,4.939-0.67,7.42-0.9
					C355.89,377.35,358.43,378.83,358.979,382.86z M319.14,401.72c7.649,3.44,12.01,0.55,11.62-7.08
					C326.909,396.98,323.3,399.18,319.14,401.72z M316.399,430.9c2.1,1.35,4.47,4.1,6.33-0.29c-6.4-9.391-18.06-9.19-23.92,1.51
					c2.78-0.13,4.899-0.22,8-0.36C310.14,435.88,311.989,435.87,316.399,430.9z M302.439,402.79c0.06-0.59,0.12-1.18,0.18-1.771
					c-3.64-2.16-7.29-4.31-11.33-6.7c-0.72,4.1,0.351,7.121,3.62,8.31C297.14,403.45,299.909,402.79,302.439,402.79z"/>
				<path fill="#FFFFFF" d="M330.76,394.64c0.39,7.629-3.971,10.52-11.62,7.08C323.3,399.18,326.909,396.98,330.76,394.64z"/>
				<path fill="#FFFFFF" d="M322.729,430.61c-1.86,4.39-4.23,1.64-6.33,0.29c-4.41,4.97-6.26,4.979-9.59,0.859
					c-3.101,0.141-5.22,0.23-8,0.36C304.67,421.42,316.329,421.22,322.729,430.61z"/>
				<linearGradient id="SVGID_3_" gradientUnits="userSpaceOnUse" x1="163.2773" y1="576.2793" x2="311.0127" y2="576.2793">
					<stop  offset="0.5054" style="stop-color:#00C5E9"/>
					<stop  offset="1" style="stop-color:#0045FF"/>
				</linearGradient>
				<path fill="url(#SVGID_3_)" d="M311.01,519.89c0.13,15.561-4.49,30.45-10.46,45.03c-10.37,25.271-25.74,47.271-44.15,67.3
					c-6.38,6.95-12.57,14.09-19.09,21.42c-6.92-7.989-13.42-15.479-19.89-23c-17.83-20.68-32.91-43.13-43.72-68.29
					c-5.83-13.59-10.7-27.659-10.41-42.56c0.12,0.13,0.24,0.27,0.36,0.4c6-6.771,11.66-13.351,17.51-19.73
					c-1.95,5.85-3.01,12.15-3,18.771c0.06,32.069,25.1,59.529,59.23,59.43c33.72-0.11,58.43-27.271,58.71-58.91
					c0.07-7.43-1.19-14.43-3.5-20.83C298.539,505.99,304.72,512.95,311.01,519.89z"/>
				<linearGradient id="SVGID_4_" gradientUnits="userSpaceOnUse" x1="256.5293" y1="483.7598" x2="311.0098" y2="483.7598">
					<stop  offset="0.5054" style="stop-color:#00C5E9"/>
					<stop  offset="1" style="stop-color:#0045FF"/>
				</linearGradient>
				<path fill="url(#SVGID_4_)" d="M309.97,507.99c0.689,4.02,1.02,7.979,1.04,11.899c-6.29-6.939-12.471-13.899-18.41-20.97
					c-4.28-11.87-12.19-21.71-22.05-28.57c-5.061-7.33-9.78-14.88-14.021-22.72C281.67,454.37,304.279,474.68,309.97,507.99z"/>
				<path fill="#FFFFFF" d="M302.619,401.02c-0.06,0.591-0.12,1.181-0.18,1.771c-2.53,0-5.3,0.66-7.53-0.16
					c-3.27-1.189-4.34-4.21-3.62-8.31C295.329,396.71,298.979,398.86,302.619,401.02z"/>
				<path fill="#FFFFFF" d="M292.6,498.92c2.31,6.4,3.57,13.4,3.5,20.83c-0.28,31.64-24.99,58.8-58.71,58.91
					c-34.13,0.1-59.17-27.36-59.23-59.43c-0.01-6.62,1.05-12.921,3-18.771c0.44-0.49,0.88-0.97,1.33-1.45
					c9-9.75,17.32-19.979,24.65-30.87c9.02-5.42,19.46-8.479,30.24-8.439c11.88,0.04,23.47,3.899,33.17,10.649
					C277.35,480.19,284.779,489.65,292.6,498.92z M281.149,520.94c3.25-4.16,3.29-7.83,0.54-12.261
					c-10.78-17.37-34.47-24.31-53.63-15.08c-6.36,3.061-12.19,7.24-17.16,10.25c-5.08-3.149-9.63-6.31-14.54-8.81
					c-1.5-0.76-3.94,0.35-5.96,0.6c0.33,1.86,0.15,4.03,1.07,5.54c5.16,8.45,4.57,16.65-0.19,25c-0.86,1.511-1.62,4.311-0.86,5.21
					c0.95,1.13,3.55,1.4,5.34,1.2c6.83-0.79,11.26-5.189,14.76-10.93c1.82,1.359,3.38,2.59,4.99,3.729
					c10.07,7.12,21.03,11.28,33.61,10.24C261.579,534.59,272.97,531.44,281.149,520.94z M253.989,539.43c-6.18,0-12.22,0-18.7,0
					c0.04,2.5-3,5.721,1.31,7.44C242.819,549.37,250.35,546.03,253.989,539.43z M224.5,490.72c10.48-5.43,21.41-6.16,33.18-3.77
					c-4.3-9.23-9.82-11.97-18.59-9.74c-5.15,1.31-10.3,2.62-15.46,3.92c-5.36,1.36-5.53,1.94-1.86,5.86
					C222.75,488.04,223.479,489.31,224.5,490.72z"/>
				<linearGradient id="SVGID_5_" gradientUnits="userSpaceOnUse" x1="190.1069" y1="512.6465" x2="283.6748" y2="512.6465">
					<stop  offset="0.5054" style="stop-color:#00C5E9"/>
					<stop  offset="1" style="stop-color:#0045FF"/>
				</linearGradient>
				<path fill="url(#SVGID_5_)" d="M281.689,508.68c2.75,4.431,2.71,8.101-0.54,12.261c-8.18,10.5-19.57,13.649-32.03,14.689
					c-12.58,1.04-23.54-3.12-33.61-10.24c-1.61-1.14-3.17-2.37-4.99-3.729c-3.5,5.74-7.93,10.14-14.76,10.93
					c-1.79,0.2-4.39-0.07-5.34-1.2c-0.76-0.899,0-3.699,0.86-5.21c4.76-8.35,5.35-16.55,0.19-25c-0.92-1.51-0.74-3.68-1.07-5.54
					c2.02-0.25,4.46-1.359,5.96-0.6c4.91,2.5,9.46,5.66,14.54,8.81c4.97-3.01,10.8-7.189,17.16-10.25
					C247.22,484.37,270.909,491.31,281.689,508.68z M268.17,511.54c-2.671-1.82-4.36-3.82-5.5-3.55c-1.551,0.38-2.671,2.5-3.98,3.87
					c1.33,1.189,2.59,3.21,4.03,3.34C264.029,515.33,265.539,513.42,268.17,511.54z"/>
				<path fill="#FFFFFF" d="M292.6,498.92c-7.82-9.27-15.25-18.729-22.05-28.57C280.409,477.21,288.319,487.05,292.6,498.92z"/>
				<path fill="#FFFFFF" d="M262.67,507.99c1.14-0.271,2.829,1.729,5.5,3.55c-2.631,1.88-4.141,3.79-5.45,3.66
					c-1.44-0.13-2.7-2.15-4.03-3.34C259.999,510.49,261.119,508.37,262.67,507.99z"/>
				<linearGradient id="SVGID_6_" gradientUnits="userSpaceOnUse" x1="207.1396" y1="457.7383" x2="270.5498" y2="457.7383">
					<stop  offset="0.5054" style="stop-color:#00C5E9"/>
					<stop  offset="1" style="stop-color:#0045FF"/>
				</linearGradient>
				<path fill="url(#SVGID_6_)" d="M256.529,447.63c4.24,7.84,8.96,15.39,14.021,22.72c-9.7-6.75-21.29-10.609-33.17-10.649
					c-10.78-0.04-21.22,3.02-30.24,8.439c4.48-6.63,8.59-13.51,12.26-20.68c2.54-0.63,5.16-1.15,7.86-1.56
					C236.839,444.45,246.869,445.04,256.529,447.63z"/>
				<linearGradient id="SVGID_7_" gradientUnits="userSpaceOnUse" x1="234.2856" y1="543.5645" x2="253.9893" y2="543.5645">
					<stop  offset="0.5054" style="stop-color:#00C5E9"/>
					<stop  offset="1" style="stop-color:#0045FF"/>
				</linearGradient>
				<path fill="url(#SVGID_7_)" d="M235.29,539.43c6.48,0,12.52,0,18.7,0c-3.64,6.601-11.17,9.94-17.39,7.44
					C232.29,545.15,235.33,541.93,235.29,539.43z"/>
				<linearGradient id="SVGID_8_" gradientUnits="userSpaceOnUse" x1="219.2705" y1="483.5977" x2="257.6797" y2="483.5977">
					<stop  offset="0.5054" style="stop-color:#00C5E9"/>
					<stop  offset="1" style="stop-color:#0045FF"/>
				</linearGradient>
				<path fill="url(#SVGID_8_)" d="M257.68,486.95c-11.771-2.391-22.7-1.66-33.18,3.77c-1.02-1.41-1.75-2.68-2.73-3.729
					c-3.67-3.92-3.5-4.5,1.86-5.86c5.16-1.3,10.31-2.61,15.46-3.92C247.859,474.98,253.38,477.72,257.68,486.95z"/>
				<path fill="#FFFFFF" d="M244.6,421.49c3.37,9.109,7.39,17.79,11.93,26.14c-9.66-2.59-19.69-3.18-29.27-1.729
					c-2.7,0.409-5.32,0.93-7.86,1.56c0.91-1.76,1.79-3.54,2.64-5.34c8.23-17.4,15-35.24,15-54.56h0.05
					C237.089,399.24,240.529,410.51,244.6,421.49z"/>
				<linearGradient id="SVGID_9_" gradientUnits="userSpaceOnUse" x1="89.5166" y1="415.7959" x2="237.0396" y2="415.7959">
					<stop  offset="0.5" style="stop-color:#00FF34"/>
					<stop  offset="1" style="stop-color:#086030"/>
				</linearGradient>
				<path fill="url(#SVGID_9_)" d="M236.39,377.31c0.44,3.47,0.65,6.88,0.65,10.25c0,19.32-6.77,37.16-15,54.56
					c-0.85,1.8-1.73,3.58-2.64,5.34c-35.22,8.71-55.2,38.05-56.1,71.87c-0.01,0.15-0.01,0.31-0.01,0.46
					c-29.95-33.3-57.94-66.96-70.25-110.56c-8.43-29.891-1.76-56.13,20.32-77.92c10.9-10.75,24.64-16.6,39.82-18.71
					c25.14-3.48,46.57,4.48,63.96,22.51C228.35,346.74,234.339,361.22,236.39,377.31z M222.31,386.87
					c0.57-35.12-28.26-61.12-58.75-60.33c-30.98-0.89-58.46,24.88-59.17,57.87c-0.73,33.24,25.1,61.05,59.24,60.899
					C197.31,445.16,221.799,418.18,222.31,386.87z"/>
				<path fill="#FFFFFF" d="M163.56,326.54c30.49-0.79,59.32,25.21,58.75,60.33c-0.51,31.31-25,58.29-58.68,58.439
					c-34.14,0.15-59.97-27.659-59.24-60.899C105.1,351.42,132.58,325.65,163.56,326.54z M210.199,378.04
					c1.13-4.18-1.4-7.19-5.53-8.74c-0.84-0.31-1.49-1.23-2.16-1.92c-2.37-2.45-4.72-4.93-7.57-7.91c1.53-3.05,1.81-7.18-1.9-10.61
					c-3.76-3.48-7.85-2.61-11.36-0.5c-5.48-4.25-10.29-8.84-15.91-11.96c-2.39-1.33-6.51,0.23-9.78,0.83
					c-1.33,0.24-2.58,2.18-3.71,2.05c-6.44-0.75-9.35,2.83-10.39,6.99c-4.24,0.8-8.78,0.3-10.72,2.31
					c-4.25,4.4-7.42,10.03-10.49,15.31c-3.08,5.29,0.99,9.66,9.69,11.55c-2.1,3.06-4.15,5.81-5.94,8.71
					c-1.72,2.78-4.31,5.65-4.48,8.61c-0.24,4.1,2.95,7.09,7.22,7.55c2.56,0.28,3.83,1.03,5.15,3.36c2.59,4.6,8.23,5.28,12.47,2.15
					c1.14-0.84,2.41-1.721,3.75-2.061c3.91-0.97,7.88-1.67,12.22-2.56c0.24,2.37,0.37,5.689,0.95,8.92
					c2.03,11.14,0.1,14.04-11.1,16.58c-1.9,0.43-3.66,1.49-5.48,2.26c0.19,0.39,0.38,0.79,0.57,1.18c14.04,0,28.09,0,42.13,0
					c-1.1-1.17-2.3-1.479-3.5-1.8c-9.37-2.5-9.99-3.17-9.94-12.82c0.02-3.96-0.7-7.14-3.65-10.31c-4.82-5.15-4.21-12.14-3.48-18.47
					c0.26-2.31,3.78-4.24,5.81-6.34c0.35,0.18,0.71,0.37,1.06,0.55c-3.06,5.64-4.66,11.21,0.45,16.34
					c4.57,4.58,9.77,3.93,14.95,1.52c5.26,5.51,9.63,6.62,13.93,3.65c4.07-2.81,4.08-6.37,0.67-14.17
					C206.709,384.09,209.319,381.3,210.199,378.04z"/>
				<linearGradient id="SVGID_10_" gradientUnits="userSpaceOnUse" x1="119.6577" y1="383.0088" x2="210.4692" y2="383.0088">
					<stop  offset="0.5" style="stop-color:#00FF34"/>
					<stop  offset="1" style="stop-color:#086030"/>
				</linearGradient>
				<path fill="url(#SVGID_10_)" d="M204.669,369.3c4.13,1.55,6.66,4.56,5.53,8.74c-0.88,3.26-3.49,6.05-6.07,10.25
					c3.41,7.8,3.4,11.36-0.67,14.17c-4.3,2.97-8.67,1.86-13.93-3.65c-5.18,2.41-10.38,3.06-14.95-1.52
					c-5.11-5.13-3.51-10.7-0.45-16.34c-0.35-0.18-0.71-0.37-1.06-0.55c-2.03,2.1-5.55,4.03-5.81,6.34
					c-0.73,6.33-1.34,13.319,3.48,18.47c2.95,3.17,3.67,6.35,3.65,10.31c-0.05,9.65,0.57,10.32,9.94,12.82
					c1.2,0.32,2.4,0.63,3.5,1.8c-14.04,0-28.09,0-42.13,0c-0.19-0.39-0.38-0.79-0.57-1.18c1.82-0.77,3.58-1.83,5.48-2.26
					c11.2-2.54,13.13-5.44,11.1-16.58c-0.58-3.23-0.71-6.55-0.95-8.92c-4.34,0.89-8.31,1.59-12.22,2.56
					c-1.34,0.34-2.61,1.221-3.75,2.061c-4.24,3.13-9.88,2.449-12.47-2.15c-1.32-2.33-2.59-3.08-5.15-3.36
					c-4.27-0.459-7.46-3.45-7.22-7.55c0.17-2.96,2.76-5.83,4.48-8.61c1.79-2.9,3.84-5.65,5.94-8.71c-8.7-1.89-12.77-6.26-9.69-11.55
					c3.07-5.28,6.24-10.91,10.49-15.31c1.94-2.01,6.48-1.51,10.72-2.31c1.04-4.16,3.95-7.74,10.39-6.99
					c1.13,0.13,2.38-1.81,3.71-2.05c3.27-0.6,7.39-2.16,9.78-0.83c5.62,3.12,10.43,7.71,15.91,11.96c3.51-2.11,7.6-2.98,11.36,0.5
					c3.71,3.43,3.43,7.56,1.9,10.61c2.85,2.98,5.2,5.46,7.57,7.91C203.18,368.07,203.83,368.99,204.669,369.3z"/>
				<linearGradient id="SVGID_11_" gradientUnits="userSpaceOnUse" x1="163.2896" y1="483.8252" x2="219.3994" y2="483.8252">
					<stop  offset="0.5054" style="stop-color:#00C5E9"/>
					<stop  offset="1" style="stop-color:#0045FF"/>
				</linearGradient>
				<path fill="url(#SVGID_11_)" d="M219.399,447.46c-3.67,7.17-7.78,14.05-12.26,20.68c-11.94,7.19-21.41,18.521-25.98,32.32
					c-5.85,6.38-11.51,12.96-17.51,19.73c-0.12-0.131-0.24-0.271-0.36-0.4c0-0.15,0-0.31,0.01-0.46
					C164.199,485.51,184.18,456.17,219.399,447.46z"/>
				<path fill="#FFFFFF" d="M207.14,468.14c-7.33,10.891-15.65,21.12-24.65,30.87c-0.45,0.48-0.89,0.96-1.33,1.45
					C185.729,486.66,195.199,475.33,207.14,468.14z"/>
			</g>
			<g>
			</g>
		</g>
	</g>
</g>
<g id="Layer_3">
</g>
<g id="Layer_2" display="none">
	<linearGradient id="SVGID_12_" gradientUnits="userSpaceOnUse" x1="67.981" y1="179.5" x2="137" y2="179.5">
		<stop  offset="0" style="stop-color:#FF4500"/>
		<stop  offset="1" style="stop-color:#FF3219"/>
	</linearGradient>
	
		<rect x="67.981" y="154" display="inline" fill-rule="evenodd" clip-rule="evenodd" fill="url(#SVGID_12_)" width="69.019" height="51"/>
</g>
</svg>
